<?xml version="1.0" encoding="UTF-8" standalone="no"?><!DOCTYPE svg PUBLIC "-//W3C//DTD SVG 1.1//EN" "http://www.w3.org/Graphics/SVG/1.1/DTD/svg11.dtd"><svg width="100%" height="100%" viewBox="0 0 56 131" version="1.1" xmlns="http://www.w3.org/2000/svg" xmlns:xlink="http://www.w3.org/1999/xlink" xml:space="preserve" xmlns:serif="http://www.serif.com/" style="fill-rule:evenodd;clip-rule:evenodd;stroke-linejoin:round;stroke-miterlimit:2;"><g><path d="M49.551,24.849l-6.186,0l0,12.378l6.186,0l0,-6.19l6.189,0l0,-6.188l-6.189,0Z" style="fill:#efcbb1;fill-rule:nonzero;"/><path d="M43.365,18.659l0,6.19l6.186,0l0,-6.19l0,-6.281l-6.186,0l0,6.281Z" style="fill:#f4d9bf;fill-rule:nonzero;"/><rect x="43.365" y="6.189" width="6.186" height="6.188" style="fill:#efcbb1;"/><path d="M37.185,86.738l0,6.179l12.365,0l0,-6.179l-6.185,0l-6.18,0Z" style="fill:#f4d9bf;fill-rule:nonzero;"/><path d="M37.185,61.981l0,24.757l12.365,0l0,-6.19l0,-6.188l0,-6.19l0,-6.189l0,-6.187l0,-6.189l-6.185,0l-6.18,0l0,12.376Z" style="fill:#daf6ff;fill-rule:nonzero;"/><rect x="37.186" y="37.228" width="6.18" height="6.188" style="fill:#efcbb1;"/><path d="M18.607,37.227l-6.178,0l0,-6.189l12.379,0l0,6.189l-6.201,0Zm-12.418,-18.568l6.24,0l0,6.19l-6.24,0l0,-6.19Zm12.418,0l6.201,0l0,6.19l-6.201,0l0,-6.19Zm24.758,6.19l-6.18,0l0,-6.19l0,-6.282l6.18,0l0,-6.188l-6.18,0l0,-6.189l-6.199,0l-6.178,0l-6.201,0l-6.178,0l-6.24,0l0,6.189l-6.189,0l0,31.038l6.189,0l0,6.188l30.996,0l0,-6.188l6.18,0l0,-6.189l0,-6.189Z" style="fill:#f4d9bf;fill-rule:nonzero;"/><path d="M43.365,12.377l-6.18,0l0,12.472l6.18,0l0,-6.191l0,-6.281Z" style="fill:#f4d9bf;fill-rule:nonzero;"/><rect x="37.185" y="0" width="6.18" height="6.188" style="fill:#efcbb1;"/><path d="M30.986,123.954l-6.178,0l0,6.188l18.557,0l0,-6.188l-6.18,0l-6.199,0Z" style="fill:#1d1d1b;fill-rule:nonzero;"/><path d="M30.986,92.917l-6.178,0l-6.201,0l-6.178,0l-6.24,0l0,31.037l12.418,0l0,-6.189l0,-6.284l0,-6.187l0,-6.188l12.379,0l0,24.848l12.379,0l0,-6.189l0,-6.284l0,-6.187l0,-6.188l0,-6.189l-6.18,0l-6.199,0Z" style="fill:#00517b;fill-rule:nonzero;"/><rect x="30.986" y="43.416" width="6.199" height="6.189" style="fill:#8c959b;"/><path d="M30.986,43.415l-6.178,0l-6.201,0l-6.178,0l0,6.189l-6.24,0l0,43.312l30.996,0l0,-6.179l0,-6.189l0,-6.189l0,-6.189l0,-6.19l0,-6.186l0,-6.19l-6.199,0l0,-6.189Z" style="fill:#eff6ff;fill-rule:nonzero;"/><path d="M18.607,31.038l-6.178,0l0,6.189l12.379,0l0,-6.189l-6.201,0Z" style="fill:#efcbb1;fill-rule:nonzero;"/><rect x="18.608" y="18.659" width="6.201" height="6.19" style="fill:#193540;"/><path d="M6.189,123.954l-6.189,0l0,6.188l18.607,0l0,-6.188l-6.178,0l-6.24,0Z" style="fill:#1d1d1b;fill-rule:nonzero;"/><rect x="6.19" y="18.659" width="6.24" height="6.19" style="fill:#193540;"/><rect x="0" y="86.737" width="6.189" height="6.179" style="fill:#f4d9bf;"/><path d="M6.189,80.548l0,-6.188l0,-6.19l0,-6.189l0,-6.187l0,-6.189l-6.189,0l0,37.132l6.189,0l0,-6.189Z" style="fill:#daf6ff;fill-rule:nonzero;"/></g></svg>