<?xml version="1.0" encoding="UTF-8" standalone="no"?><!DOCTYPE svg PUBLIC "-//W3C//DTD SVG 1.1//EN" "http://www.w3.org/Graphics/SVG/1.1/DTD/svg11.dtd"><svg width="100%" height="100%" viewBox="0 0 48 26" version="1.1" xmlns="http://www.w3.org/2000/svg" xmlns:xlink="http://www.w3.org/1999/xlink" xml:space="preserve" xmlns:serif="http://www.serif.com/" style="fill-rule:evenodd;clip-rule:evenodd;stroke-linejoin:round;stroke-miterlimit:2;"><g><path d="M14.871,17.89l0.071,-0.045l0.167,-0.047c0.244,-0.006 0.468,0.065 0.593,0.22c0.045,0.057 0.05,0.074 0.07,0.124c0,0 0.455,0.183 0.343,0.536c-0.01,0.031 -0.035,0.069 -0.035,0.069l0.079,0.085l0.056,0.087c0.044,0.109 0.065,0.223 0.005,0.324c-0.021,0.034 -0.053,0.063 -0.08,0.095l-0.398,0.351l-0.437,0.484l-0.518,0.479l-0.358,0.351l0.5,-0.095c0.341,-0.071 0.69,-0.126 1.024,-0.214c0.375,-0.097 0.733,-0.225 1.098,-0.34c1.104,-0.351 1.101,-0.357 2.178,-0.749l0.914,-0.306l0.739,-0.284l0.486,-0.181l0.307,-0.141l0.154,-0.049c0.23,-0.015 0.464,0.035 0.585,0.173c0.031,0.035 0.064,0.097 0.064,0.097c0.14,0.036 0.19,0.035 0.296,0.118c0.225,0.175 0.259,0.373 0.14,0.54c-0.051,0.072 -0.137,0.126 -0.214,0.182l0.002,0.005c0.014,0.119 0.018,0.12 -0.022,0.236l0.041,0.085l0.02,0.076l0.131,0.067c0.303,0.318 0.249,0.456 0.112,0.596c-0.103,0.106 -0.488,0.275 -0.551,0.304c-0.208,0.094 -0.424,0.178 -0.636,0.268l-0.048,0.018c-0.734,0.242 -0.728,0.254 -1.483,0.458l-0.57,0.231l-1.026,0.348l-0.069,0.019c-1.137,0.254 -1.137,0.254 -2.286,0.477l-0.144,0.013l-0.455,-0.004l-0.054,0.011l0.106,0.016l0.272,0.044c0.14,0.041 0.19,0.041 0.292,0.128c0.134,0.116 0.139,0.233 0.136,0.33c-0.005,0.15 -0.089,0.24 -0.177,0.316l0.04,0.017l0.1,0.08l0.022,0.03l0.04,0.002l0.174,0.058c0.188,0.139 0.273,0.345 0.26,0.453c-0.011,0.089 -0.064,0.173 -0.149,0.238c-0.101,0.076 -0.126,0.074 -0.238,0.099c0,0 0.083,0.123 0.078,0.246c-0.008,0.197 -0.286,0.512 -0.675,0.442c-0.195,-0.035 -0.499,-0.215 -0.499,-0.215l-0.348,-0.206l-0.432,-0.253c-0.156,-0.07 -0.306,-0.149 -0.468,-0.212c-0.186,-0.071 -0.383,-0.128 -0.576,-0.19c-0.548,-0.174 -0.55,-0.171 -1.12,-0.303l-0.076,-0.022c-0.421,-0.153 -0.422,-0.152 -0.838,-0.311l-0.093,-0.046c-0.133,-0.099 -0.134,-0.099 -0.283,-0.247c-0.052,-0.052 -0.081,-0.113 -0.108,-0.175l-0.097,-0.393c-0.005,-0.065 -0.009,-0.131 0.018,-0.192c0.032,-0.073 0.125,-0.168 0.174,-0.225l-0.003,-0.056c0.052,-0.279 0.085,-0.274 0.204,-0.541l0.054,-0.091l-0.006,0.017l0.049,-0.089l0.12,-0.16l0.075,-0.179l0.206,-0.473l0.284,-0.503l0.03,-0.045c0.132,-0.168 0.257,-0.339 0.396,-0.504c0.283,-0.337 0.528,-0.579 0.837,-0.898l0.34,-0.378c0.217,-0.249 0.223,-0.246 0.411,-0.507l0.111,-0.105c0.051,-0.024 0.097,-0.055 0.153,-0.073c0.152,-0.047 0.2,-0.029 0.357,-0.016c0.019,0.006 0.037,0.013 0.056,0.02Zm24.213,-14.2c0.349,0.011 0.672,0.221 0.629,0.515c-0.046,0.318 -0.397,0.531 -0.527,0.961c-0.128,0.424 -0.08,0.871 -0.225,1.279c0,0 -0.195,0.371 -0.436,0.589c-0.239,0.216 -0.515,0.372 -0.936,0.407c-1.544,0.135 -3.006,0.733 -4.437,1.039c-0.35,0.075 -0.795,0.101 -1.038,-0.179c-0.384,0.346 -0.821,0.671 -1.379,0.826c-0.086,0.024 -0.303,0.068 -0.498,0.102c0,0 -0.312,0.046 -0.58,0.034c-0.44,-0.02 -0.864,-0.163 -1.174,-0.396c0,0 -0.134,0.206 -0.258,0.38c-0.063,0.088 -0.156,0.208 -0.156,0.208c-0.326,0.409 -0.807,0.801 -1.449,0.835c-0.378,0.021 -0.756,-0.07 -1.104,-0.175c0,0 -0.323,-0.131 -0.475,-0.309c-0.07,0.102 -0.142,0.202 -0.219,0.301c-0.098,0.128 -0.141,0.175 -0.197,0.238c-0.303,0.335 -0.7,0.651 -1.24,0.702c-0.429,0.042 -0.85,-0.04 -1.251,-0.191c-0.042,-0.015 -0.081,-0.033 -0.119,-0.053c-0.037,-0.02 -0.071,-0.041 -0.104,-0.065c-0.396,-0.283 -0.423,-0.73 -0.444,-1.106c-0.022,-0.382 0.007,-0.765 0.05,-1.147l-0.191,0.094c-0.405,1.127 -0.929,2.283 -2.01,3.069c-0.311,0.225 -0.531,0.415 -1.114,0.519c-0.185,0.032 -0.375,0.051 -0.565,0.049l0.256,0.134c0.376,0.194 0.511,0.283 0.933,0.422c0.191,0.063 0.391,0.11 0.589,0.163c0.56,0.149 0.562,0.146 1.14,0.252l0.079,0.019c0.431,0.133 0.432,0.132 0.859,0.272l0.098,0.041c0.141,0.094 0.142,0.094 0.302,0.235c0.056,0.05 0.09,0.11 0.121,0.171l0.127,0.387c0.01,0.065 0.019,0.131 -0.003,0.193c-0.027,0.074 -0.113,0.174 -0.157,0.233l0.007,0.056c-0.03,0.281 -0.064,0.277 -0.163,0.549l-0.047,0.093l0.005,-0.017l-0.042,0.09l-0.108,0.166l-0.061,0.183l-0.17,0.481l-0.245,0.514l-0.027,0.047c-0.119,0.174 -0.231,0.35 -0.357,0.521c-0.257,0.349 -0.483,0.602 -0.767,0.934l-0.312,0.394c-0.197,0.258 -0.204,0.255 -0.372,0.524l-0.103,0.11c-0.128,0.069 -0.156,0.102 -0.32,0.117c-0.111,0.01 -0.237,-0.023 -0.237,-0.023l-0.07,0.048l-0.162,0.054c-0.244,0.016 -0.473,-0.045 -0.61,-0.195c-0.049,-0.054 -0.055,-0.07 -0.079,-0.119c0,0 -0.469,-0.163 -0.384,-0.52c0.008,-0.032 0.03,-0.071 0.03,-0.071l-0.085,-0.081l-0.062,-0.085c-0.053,-0.107 -0.082,-0.219 -0.03,-0.323c0.018,-0.034 0.048,-0.065 0.072,-0.097l0.371,-0.369l0.399,-0.504l0.482,-0.501l0.328,-0.364l-0.485,0.116c-0.336,0.087 -0.68,0.158 -1.007,0.26c-0.367,0.115 -0.715,0.258 -1.07,0.391c-1.076,0.4 -1.072,0.405 -2.118,0.847l-0.89,0.346l-0.716,0.318l-0.472,0.203l-0.296,0.155l-0.15,0.055c-0.263,0.029 -0.499,0 -0.661,-0.24l-0.008,0c-0.143,-0.03 -0.192,-0.027 -0.305,-0.105c-0.238,-0.166 -0.287,-0.362 -0.182,-0.533c0.045,-0.074 0.129,-0.133 0.201,-0.192l-0.003,-0.006c-0.022,-0.118 -0.026,-0.119 0.004,-0.236l-0.047,-0.083l-0.025,-0.073l-0.136,-0.062c-0.329,-0.306 -0.283,-0.444 -0.158,-0.589c0.095,-0.11 0.466,-0.297 0.526,-0.328c0.201,-0.103 0.41,-0.198 0.615,-0.297l0.046,-0.02c0.715,-0.275 0.707,-0.287 1.446,-0.525l0.552,-0.256l0.997,-0.395l0.067,-0.022c1.116,-0.305 1.116,-0.305 2.247,-0.58l0.141,-0.019l0.455,-0.017l0.055,-0.014l-0.102,-0.011l-0.275,-0.031c-0.143,-0.035 -0.194,-0.033 -0.303,-0.116c-0.144,-0.11 -0.158,-0.228 -0.162,-0.325c-0.007,-0.149 0.07,-0.242 0.153,-0.322l-0.039,-0.015l-0.108,-0.075l-0.023,-0.028l-0.039,-0.001l-0.179,-0.05c-0.272,-0.178 -0.388,-0.495 -0.166,-0.684c0.095,-0.082 0.121,-0.08 0.232,-0.11c0,0 -0.093,-0.121 -0.097,-0.245c-0.004,-0.097 0.016,-0.239 0.144,-0.345c0.04,-0.032 0.094,-0.054 0.14,-0.081c-0.241,-0.106 -0.446,-0.256 -0.612,-0.427c0,0 -0.074,0.064 -0.146,0.136c-0.491,0.496 -1.031,1.002 -1.774,1.224c-0.274,0.082 -0.385,0.087 -0.543,0.114c0,0 -0.312,0.046 -0.58,0.034c-0.61,-0.027 -1.17,-0.306 -1.481,-0.7c-0.021,0.025 -0.042,0.049 -0.063,0.073c-0.559,0.639 -1.193,1.306 -2.075,1.569c-0.274,0.082 -0.384,0.087 -0.542,0.114c0,0 -0.532,0.066 -0.895,0.002c-0.754,-0.134 -1.311,-0.666 -1.472,-1.258c-0.28,-1.035 -0.02,-2.144 0.271,-3.185c0.279,-0.997 0.707,-1.984 1.526,-2.804c0.301,-0.302 0.681,-0.565 1.158,-0.707c0.071,-0.021 0.509,-0.106 0.815,-0.092c0.63,0.029 1.306,0.264 1.46,0.698c0.125,0.356 0.013,0.739 -0.102,1.103c-0.405,1.288 -1.106,2.546 -2.084,3.641c-0.13,0.146 -0.27,0.288 -0.432,0.415c0,0 -0.016,0.225 -0.003,0.391l0.002,0.013c0.827,-0.966 1.493,-2.016 2.219,-3.002c0,0 0.016,-0.061 0.025,-0.103c0.278,-1.236 0.693,-2.499 1.733,-3.496c0.528,-0.507 1.391,-0.878 2.319,-0.712c0.462,0.083 0.907,0.299 1.05,0.625c0.061,0.139 0.078,0.523 -0.015,0.811c-0.162,0.509 -0.46,1.007 -0.918,1.393c-0.102,0.086 -0.22,0.164 -0.361,0.216c-0.283,0.105 -0.734,0.032 -0.871,-0.231c-0.007,0.019 -0.015,0.037 -0.022,0.056c-0.423,1.084 -0.484,2.245 -0.412,3.34c0,0 0.357,-0.438 0.652,-0.827c0.386,-0.509 0.765,-1.022 1.142,-1.535l0.07,-0.097c0.063,-0.085 0.087,-0.182 0.109,-0.271c0.321,-1.289 0.802,-2.578 1.765,-3.68c0.187,-0.214 0.401,-0.418 0.646,-0.596c0.206,-0.15 0.39,-0.328 0.668,-0.414c0,0 0.272,-0.06 0.474,-0.096c0,0 0.317,-0.048 0.591,-0.038c0.97,0.034 1.78,0.669 1.926,1.408c0.04,0.2 0.05,0.401 0.049,0.603c0,0 0.083,-0.064 0.156,-0.105c0.179,-0.681 0.339,-1.362 0.579,-2.036c0.213,-0.602 1.274,-1.072 2.094,-0.712c0.306,0.134 0.451,0.406 0.393,0.679c-0.274,1.283 -0.592,2.55 -0.897,3.821l-0.006,0.024c0.267,-0.498 0.53,-0.998 0.726,-1.513c0,0 0.071,-0.38 0.14,-0.689c0.141,-0.625 0.272,-1.257 0.489,-1.868c0.213,-0.601 1.275,-1.072 2.095,-0.712c0.299,0.132 0.443,0.402 0.399,0.661c-0.188,1.106 -0.396,2.219 -0.615,3.331c0,0 0.062,-0.116 0.103,-0.193c0.103,-0.195 0.208,-0.389 0.314,-0.582l0.009,-0.017l-0.002,0.016c0.24,-1.352 0.676,-2.737 1.747,-3.823c0.293,-0.299 0.665,-0.559 1.122,-0.707c0.117,-0.038 0.631,-0.133 1.007,-0.099c0.567,0.051 1.169,0.263 1.319,0.688c0.011,0.03 0.049,0.193 0.049,0.328c0,0.574 -0.256,1.135 -0.509,1.692c-0.465,1.02 -1.031,2.035 -1.892,2.901c-0.082,0.083 -0.17,0.164 -0.265,0.239c0,0 -0.017,0.224 -0.003,0.39l0.001,0.013c0.676,-0.788 1.214,-1.645 1.817,-2.458c0.403,-0.543 0.678,-1.216 0.943,-1.868c0.093,-0.228 0.083,-0.347 0.121,-0.496c0.052,-0.201 0.12,-0.399 0.231,-0.586c0.289,-0.518 1.08,-0.904 1.728,-1.027c0.151,-0.03 0.301,-0.063 0.451,-0.098l2.637,-0.606c0.072,-0.042 0.004,-0.018 0.183,-0.097c0.158,-0.069 0.332,-0.116 0.507,-0.157c0.144,-0.034 1.294,-0.2 1.512,0.324c0.108,0.262 -0.115,0.545 -0.329,0.766c-1.509,1.563 -2.932,3.187 -4.169,4.829l-0.007,0.009c0.241,-0.042 0.479,-0.088 0.718,-0.134c0,0 0.096,-0.305 0.156,-0.513c0.074,-0.25 0.159,-0.501 0.313,-0.729c0,0 0.114,-0.164 0.258,-0.281c0.261,-0.21 0.583,-0.381 0.922,-0.509c0.192,-0.073 0.366,-0.128 0.611,-0.124Zm7.723,5.994c0.408,0.012 0.805,0.22 0.864,0.522c0.042,0.217 -0.099,0.429 -0.219,0.645c-0.717,1.29 -1.37,2.613 -2.404,3.721c-0.294,0.315 -0.647,0.636 -1.131,0.735c-0.515,0.106 -1.114,-0.037 -1.513,-0.237c-0.386,-0.193 -0.517,-0.587 -0.556,-0.937c-0.043,-0.373 -0.007,-0.748 0.047,-1.12c-0.396,0.982 -0.899,1.98 -1.862,2.662c-0.02,0.013 -0.039,0.027 -0.059,0.04c-0.066,0.045 -0.076,0.062 -0.1,0.083c-0.26,0.215 -0.643,0.368 -1.114,0.409c-0.221,0.02 -0.462,0.015 -0.718,-0.02c-0.327,-0.044 -0.632,-0.159 -0.89,-0.315c0,0 -0.179,0.318 -0.363,0.561c-0.356,0.473 -1.003,0.794 -1.795,0.755c-0.717,-0.036 -1.42,-0.275 -1.932,-0.635c-0.264,-0.186 -0.439,-0.425 -0.466,-0.713c-0.043,-0.452 0.005,-0.91 0.046,-1.366l0.004,-0.045c-0.364,0.921 -0.667,1.856 -1.057,2.77c-0.055,0.131 -0.114,0.26 -0.18,0.388l-0.015,0.036l-0.082,0.119l-0.061,0.052c-0.152,0.127 -0.203,0.113 -0.204,0.114c-0.06,0.016 -0.121,0.033 -0.183,0.032c-0.179,0 -0.115,-0.012 -0.206,-0.007c-0.883,0.044 -1.77,-0.394 -2.092,-1.032c0,0 -0.053,-0.164 -0.064,-0.29c-0.033,-0.383 0.004,-0.769 0.043,-1.152c-0.381,1.112 -0.721,2.224 -1.152,3.337c-0.046,0.12 -0.038,0.121 -0.038,0.121c-0.012,0.063 -0.01,0.078 -0.015,0.109c-0.051,0.335 -0.516,0.602 -1.051,0.438c-0.529,-0.163 -0.961,-0.485 -1.262,-0.847c-0.12,-0.145 -0.203,-0.312 -0.173,-0.486c0,0 0.013,-0.241 0.014,-0.447c0.003,-1.943 -0.113,-3.877 0.077,-5.833c0.026,-0.274 0.128,-0.545 0.395,-0.735c0.5,-0.357 1.169,-0.605 1.83,-0.695c0.394,-0.054 0.915,0.123 0.841,0.504c-0.116,0.486 -0.196,0.981 -0.262,1.475l-0.005,0.039c0.024,-0.045 0.049,-0.09 0.074,-0.135c0.295,-0.534 0.562,-1.094 0.984,-1.547c0,0 0.121,-0.118 0.226,-0.185c0.619,-0.393 1.666,-0.264 2.371,0.041c0.233,0.1 0.43,0.255 0.425,0.484c-0.006,0.207 -0.014,0.414 -0.02,0.622c0,0 0.067,-0.125 0.111,-0.208c0.284,-0.532 0.547,-1.092 0.958,-1.536c0,0 0.121,-0.119 0.226,-0.185c0.621,-0.394 1.666,-0.264 2.372,0.04c0.232,0.1 0.434,0.254 0.424,0.495c-0.066,1.402 -0.138,2.798 -0.223,4.194l-0.001,0.02c0.231,-0.472 0.459,-0.945 0.686,-1.418c0,0 0.055,-0.26 0.101,-0.462c0.282,-1.244 0.765,-2.479 1.6,-3.55c0.236,-0.304 0.517,-0.591 0.864,-0.83c0.229,-0.158 0.404,-0.319 0.68,-0.394c0,0 0.274,-0.051 0.477,-0.079c0,0 0.326,-0.037 0.601,-0.016c0.968,0.074 1.744,0.715 1.891,1.461c0.041,0.207 0.05,0.416 0.048,0.625c0,0 -0.094,0.057 0.132,-0.074c0.077,-0.215 0.153,-0.429 0.239,-0.642c0.027,-0.069 0.174,-0.396 0.526,-0.597c-1.217,-0.704 -0.916,-2.451 0.342,-3.085c0.505,-0.254 1.217,-0.27 1.717,0.047c0.689,0.437 0.823,1.215 0.596,1.899c-0.138,0.417 -0.42,0.818 -0.874,1.089c0,0 0.265,0.241 0.242,0.49c-0.005,0.058 -0.008,0.058 -0.014,0.08c-0.2,0.813 -0.467,1.623 -0.703,2.439l-0.022,0.079c0.343,-0.557 0.627,-1.145 1.115,-1.633c0.19,-0.191 0.527,-0.283 0.858,-0.284c0.017,0 0.017,0 0.034,0Zm-20.534,9.263c0,0 0.001,-0.005 0,0Zm1.093,-0.121c-0.004,0.086 -0.001,0.041 -0.001,0.041c0.001,-0.019 0.001,-0.057 0.001,-0.041Zm-0.545,-7.488c-0.286,0.098 -0.592,0.202 -0.781,0.381c0,0 -0.031,0.232 -0.045,0.44c-0.058,0.89 -0.053,1.783 -0.054,2.675c0,1.035 0.021,2.073 -0.003,3.105c-0.002,0.106 -0.013,0.245 -0.013,0.245c0.106,0.145 0.271,0.271 0.439,0.381l0.002,0.002c0.453,-1.174 0.809,-2.369 1.226,-3.552l0.022,-0.06c-0.028,0.059 -0.056,0.117 -0.083,0.176l-0.031,0.066l-0.093,0.122c-0.048,0.03 -0.09,0.067 -0.145,0.091c-0.224,0.096 -0.533,0.049 -0.69,-0.096c-0.108,-0.1 -0.093,-0.141 -0.115,-0.261c0.071,-1.238 0.145,-2.479 0.378,-3.709c0,0 0.021,-0.017 -0.014,-0.006Zm-0.908,6.917c0.003,-0.013 0.001,-0.004 0,0Zm5.443,-0.739c-0.001,-0.034 -0.012,-0.068 -0.026,-0.102c0.009,0.034 0.018,0.068 0.026,0.102Zm-0.959,-0.197c-0.074,0.082 0.031,-0.033 0,0Zm-28.891,-3.159c0.324,0.015 0.605,0.194 0.622,0.44c0.028,0.409 0.52,0.812 1.131,0.745c0.228,-0.025 0.174,-0.329 0.076,-0.518c-0.201,-0.384 -0.551,-0.72 -0.855,-1.067c-1.423,-1.635 -2.552,-3.477 -2.476,-5.347c0.057,-1.422 1.03,-2.791 2.586,-3.688c0.916,-0.529 1.957,-0.959 3.064,-1.189c1.024,-0.212 2.435,-0.135 2.472,0.991c0.017,0.531 -0.304,1.04 -0.611,1.539c-0.634,1.015 -1.837,1.882 -3.156,2.254c-0.338,0.095 -0.783,0.129 -1.046,-0.114c-0.179,-0.167 -0.18,-0.409 -0.057,-0.611c0.401,-0.656 0.971,-1.259 1.403,-1.913l0.014,-0.021c-0.911,0.191 -1.737,0.657 -1.914,1.428c-0.193,0.841 0.213,1.702 0.62,2.439c0.718,1.303 1.727,2.506 2.688,3.725c0.192,0.244 0.385,0.49 0.504,0.755c0,0 0.128,0.314 0.126,0.602c-0.007,1.15 -1.477,2.069 -2.723,2.471c-0.807,0.261 -1.724,0.374 -2.517,0.01c-0.946,-0.435 -1.287,-1.422 -1.058,-2.176c0.118,-0.386 0.526,-0.751 1.068,-0.756c0.02,0.001 0.02,0.001 0.039,0.001Zm27.908,-1.886c0.094,0.011 0.126,0.021 0.176,0.04c0.256,0.094 0.349,0.37 0.32,0.656c0,0 -0.025,0.254 -0.048,0.445c-0.125,1.024 -0.339,2.05 -0.294,3.067c0.014,0.317 0.392,0.646 0.914,0.666l0.002,0c0.215,-0.465 0.375,-0.943 0.552,-1.42c0.171,-0.457 0.343,-0.913 0.521,-1.369l0.004,-0.012l-0.056,0.036l-0.176,0.05c-0.126,0.001 -0.257,0.001 -0.365,-0.044c-0.175,-0.072 -0.273,-0.209 -0.273,-0.401c0.001,-0.911 0.024,-1.826 0.055,-2.739c-0.285,-0.1 -0.603,-0.155 -0.905,-0.117c-0.179,0.023 -0.255,0.19 -0.356,0.341c-0.202,0.3 -0.381,0.608 -0.556,0.918c0,0 0.236,-0.136 0.485,-0.117Zm-27.54,-5.803c-1.31,1.554 -0.705,3.67 0.314,5.265c0.518,0.81 1.221,1.557 1.821,2.317c0.342,0.432 0.624,0.924 0.432,1.423c-0.255,0.657 -1.606,0.887 -2.567,0.336c-0.179,-0.103 -0.334,-0.227 -0.464,-0.364c0,0 0.044,0.808 0.798,1.044c0.326,0.102 0.727,0.03 1.047,-0.049c1.119,-0.276 2.178,-0.897 2.353,-1.69c0.111,-0.503 -0.377,-0.989 -0.763,-1.478c-1.305,-1.649 -2.768,-3.279 -3.148,-5.227c-0.104,-0.528 -0.073,-1.081 0.179,-1.58c0,0 -0.001,0.001 -0.002,0.003Zm31.59,5.018c0.106,0.009 0.128,0.018 0.181,0.035c0.299,0.098 0.383,0.384 0.358,0.657c0,0 -0.033,0.245 -0.065,0.458c-0.141,0.965 -0.281,1.935 -0.281,2.905c0,0.109 -0.004,0.22 0.021,0.326c0.015,0.062 0.12,0.114 0.214,0.171c0.403,0.249 0.943,0.431 1.45,0.355c0.234,-0.035 0.396,-0.194 0.518,-0.357c0,0 -0.639,0.374 -1.083,0.087c-0.267,-0.173 -0.278,-0.496 -0.247,-0.731c0.147,-1.173 0.144,-2.351 0.207,-3.542c0.025,-0.452 0.051,-0.904 0.076,-1.356c0,0 0.016,-0.027 -0.029,-0.042c-0.276,-0.09 -0.581,-0.143 -0.872,-0.105c-0.167,0.021 -0.243,0.173 -0.342,0.321c-0.202,0.303 -0.378,0.616 -0.55,0.93c0,0 0.242,-0.121 0.444,-0.112Zm6.487,4.242c-0.01,0.006 -0.047,0.031 -0.001,0.001c0,-0.001 0.001,-0.001 0.001,-0.001Zm0.011,-0.01c-0.023,0.02 0.023,-0.021 0,0Zm0.471,-7.152c-0.157,0.003 -0.311,0.032 -0.465,0.058c-0.139,0.068 -0.274,0.201 -0.274,0.201c-0.783,0.522 -1.182,1.305 -1.532,2.069c-0.346,0.757 -0.601,1.536 -0.732,2.329l-0.026,0.083c-0.229,0.481 -0.463,0.96 -0.696,1.44c0,0 0.181,-0.054 0.181,-0.054c0.186,-0.006 0.371,0.017 0.496,0.111c0.204,0.155 0.268,0.384 0.569,0.52c0.269,0.122 0.625,0.106 0.991,0.038c0.076,-0.039 0.136,-0.096 0.196,-0.151l0.065,-0.05c0.014,-0.009 0.028,-0.018 0.042,-0.028c0.467,-0.317 0.771,-0.737 1.027,-1.16c0.316,-0.525 0.565,-1.071 0.757,-1.629l0.057,-0.102c0.13,-0.121 0.328,-0.192 0.481,-0.266c0.27,-0.131 0.511,-0.293 0.73,-0.469l0.136,-0.078c0.142,-0.038 0.18,-0.062 0.335,-0.046c0.285,0.03 0.513,0.223 0.442,0.504c-0.007,0.027 -0.014,0.054 -0.021,0.081c-0.181,0.73 -0.392,1.481 -0.257,2.222c0.017,0.096 0.082,0.229 0.082,0.229c0.205,0.072 0.453,0.194 0.64,0.118c0.17,-0.07 0.302,-0.203 0.429,-0.332c0,0 -0.441,0.181 -0.749,0.02c-0.273,-0.142 -0.261,-0.446 -0.182,-0.693c0.457,-1.46 0.827,-2.924 1.266,-4.416l0.006,-0.022c-0.069,0.012 -0.134,0.034 -0.194,0.061c-0.115,0.051 -0.198,0.187 -0.198,0.187c-0.112,0.27 -0.208,0.544 -0.302,0.818l-0.076,0.123c-0.11,0.084 -0.106,0.089 -0.248,0.141c-0.128,0.122 -0.195,0.275 -0.312,0.411c-0.231,0.269 -0.516,0.513 -0.858,0.706l-0.16,0.063c-0.184,0.019 -0.38,0.009 -0.515,-0.075c-0.2,-0.126 -0.182,-0.349 -0.143,-0.55c0.108,-0.554 0.204,-1.127 0.078,-1.665c-0.07,-0.301 -0.326,-0.628 -0.788,-0.724c-0.09,-0.018 -0.184,-0.023 -0.278,-0.023Zm0.08,0.25c0.218,0.071 0.368,0.226 0.427,0.381c0,0 0.026,0.429 -0.004,0.798c-0.006,0.076 -0.013,0.151 -0.02,0.227c-0.023,0.24 -0.211,0.38 -0.454,0.409c-0.064,0.007 -0.267,0.014 -0.153,-0.001c0.003,0 -0.11,0.04 -0.177,0.096c-0.339,0.283 -0.311,0.706 -0.164,1.06c0.059,0.142 0.144,0.286 0.306,0.376l0.006,0.003c0.094,0.07 0.133,0.083 0.181,0.177c0.048,0.093 0.029,0.201 0.002,0.292c-0.275,0.916 -0.663,1.848 -1.611,2.458l-0.161,0.072c-0.062,0.008 -0.123,0.025 -0.186,0.026c-0.19,0.001 -0.24,-0.017 -0.393,-0.121c0,0 -0.157,-0.155 -0.168,-0.323c0,0 -0.014,-0.136 -0.017,-0.231c-0.046,-1.688 0.304,-3.405 1.232,-4.772c0.217,-0.319 0.502,-0.616 0.869,-0.846l0.147,-0.065l0.167,-0.028c0.057,0.004 0.114,0.008 0.171,0.012Zm-2.569,5.927l0.007,0.025c0,0 -0.007,-0.04 -0.007,-0.025Zm0,-0.01c0,0 -0.001,-0.039 0,0Zm-36.888,-0.104c0,0 0,0 0,0Zm9.041,-7.744c-0.546,0.009 -0.941,0.432 -1.215,0.77c-1.143,1.416 -1.516,3.212 -1.412,4.69c0.023,0.317 0.072,0.655 0.402,0.898c0.219,0.16 0.56,0.167 0.889,0.105c0,0 -0.303,-0.076 -0.46,-0.211c-0.137,-0.117 -0.188,-0.268 -0.239,-0.415c0,0 -0.064,-0.506 -0.065,-0.88c0,-0.059 -0.003,-0.099 0.025,-0.164c0.047,-0.106 0.09,-0.121 0.192,-0.197c0.073,-0.039 0.158,-0.116 0.158,-0.116l-0.107,-0.033l-0.137,-0.091c-0.057,-0.08 -0.098,-0.164 -0.112,-0.254c-0.001,-0.005 0.03,-0.506 0.101,-0.916c0.142,-0.816 0.38,-1.648 0.958,-2.345c0.175,-0.21 0.39,-0.403 0.643,-0.563l0.11,-0.054c0.266,-0.099 0.617,-0.081 0.819,0.096c0.058,0.051 0.033,0.007 0.034,-0.01c0.005,-0.073 -0.008,-0.182 -0.008,-0.182c-0.133,-0.108 -0.365,-0.13 -0.576,-0.128Zm29.121,5.604c-0.053,0.277 -0.101,0.554 -0.14,0.832l-0.002,0.016c0.115,-0.238 0.212,-0.48 0.293,-0.725c0.003,-0.01 -0.078,-0.067 -0.146,-0.142c0,0 -0.004,0.012 -0.005,0.019Zm-31.156,0.235l0.006,0.015c0,0 -0.009,-0.034 -0.006,-0.015Zm-0.001,-0.008c0.001,0.003 0,-0.002 0,0Zm4.002,-1.627c0.039,0.039 0.088,0.073 0.116,0.116c0.136,0.204 0.07,0.44 0.184,0.657c0.191,0.355 0.59,0.493 1.007,0.42c0.075,-0.013 0.188,-0.02 0.122,-0.031c0,0 -0.329,-0.071 -0.505,-0.256c-0.291,-0.305 -0.232,-0.711 -0.24,-1.093c-0.03,-1.373 0.074,-2.779 0.879,-3.999c0.204,-0.31 0.479,-0.595 0.825,-0.825l0.156,-0.072c0.285,-0.086 0.644,-0.009 0.799,0.193c0.02,-0.089 0.03,-0.182 0.01,-0.273c0,0 -0.066,-0.048 -0.13,-0.072c-0.493,-0.179 -1.083,0.079 -1.453,0.47c-0.882,0.935 -1.246,2.106 -1.475,3.217l-0.059,0.128c-0.551,0.749 -1.091,1.505 -1.647,2.251l-0.04,0.055c0.218,-0.254 0.419,-0.516 0.611,-0.782l0.121,-0.113c0.147,-0.063 0.183,-0.099 0.362,-0.097c0.129,0.002 0.246,0.054 0.357,0.106Zm7.214,0.582c-0.012,0.011 -0.061,0.059 0.009,-0.009c0.003,-0.003 -0.006,0.006 -0.009,0.009Zm-6.476,-0.052c0.002,0.008 -0.001,-0.003 0,0Zm3.718,-1.203c0.123,0.117 0.147,0.108 0.178,0.273c0.045,0.224 0.161,0.459 0.455,0.614c0.288,0.151 0.675,0.126 1.051,0.046c0.117,-0.025 0.24,-0.175 0.24,-0.175c0.224,-0.181 0.457,-0.365 0.638,-0.575c0.619,-0.718 0.979,-1.55 1.259,-2.372l0.053,-0.097c0.093,-0.091 0.076,-0.095 0.237,-0.164c0.332,-0.145 0.626,-0.335 0.888,-0.545c0,0 -0.117,0.048 -0.117,0.048l-0.182,0.023c-0.25,-0.033 -0.479,-0.143 -0.525,-0.32c-0.027,-0.105 0.014,-0.214 0.036,-0.325c0.108,-0.565 0.212,-1.148 0.072,-1.691c-0.098,-0.382 -0.561,-0.75 -1.182,-0.649c-0.131,0.022 -0.324,0.061 -0.324,0.061c-0.143,0.072 -0.283,0.217 -0.283,0.217c-0.785,0.553 -1.188,1.361 -1.523,2.097c-0.299,0.658 -0.529,1.333 -0.679,2.017l-0.057,0.124c-0.461,0.631 -0.925,1.26 -1.399,1.884l-0.033,0.042c0.131,-0.144 0.256,-0.292 0.377,-0.441l0.123,-0.105c0.055,-0.022 0.106,-0.052 0.165,-0.067c0.163,-0.04 0.211,-0.017 0.372,0.007c0.053,0.025 0.106,0.049 0.16,0.073Zm3.293,-5.674c0.107,0.033 0.217,0.069 0.289,0.134c0.094,0.085 0.15,0.255 0.15,0.255c0.078,0.332 0.006,0.675 -0.027,1.018c-0.022,0.234 -0.198,0.371 -0.433,0.406c-0.061,0.01 -0.257,0.022 -0.148,0.005c0.004,-0.001 -0.108,0.04 -0.176,0.095c-0.36,0.292 -0.343,0.719 -0.198,1.077c0.057,0.14 0.14,0.284 0.298,0.366l0.006,0.003c0.1,0.069 0.141,0.081 0.193,0.178c0.051,0.094 0.033,0.204 0.006,0.298c-0.276,0.927 -0.69,1.886 -1.6,2.506l-0.158,0.075c-0.062,0.01 -0.121,0.028 -0.184,0.03c-0.171,0.005 -0.209,-0.027 -0.353,-0.083c-0.013,-0.005 -0.213,-0.169 -0.224,-0.36c0,0 -0.017,-0.174 -0.019,-0.3c-0.028,-1.669 0.332,-3.385 1.231,-4.743c0.216,-0.325 0.497,-0.629 0.86,-0.87l0.146,-0.069l0.168,-0.031c0.058,0.003 0.115,0.006 0.173,0.01Zm-2.56,5.99l0.007,0.035c0,0 -0.007,-0.083 -0.007,-0.035Zm26.114,-0.293c0.058,-0.014 0.012,-0.005 0,0Zm-20.79,-3.314c0.159,0.144 0.179,0.318 0.129,0.608c-0.124,0.72 -0.246,1.454 -0.136,2.163c0.017,0.107 0.024,0.247 0.133,0.279c0.312,0.091 0.594,0.159 0.878,-0.113c0.053,-0.05 0.102,-0.102 0.15,-0.155c-0.316,0.194 -0.898,0.168 -1.04,-0.192c-0.093,-0.236 0.018,-0.491 0.081,-0.751c0.44,-1.784 0.863,-3.572 1.276,-5.354c0.006,-0.026 0.041,-0.071 -0.013,-0.059c-0.064,0.014 -0.125,0.037 -0.181,0.065c-0.108,0.053 -0.15,0.146 -0.181,0.246c-0.201,0.663 -0.388,1.33 -0.561,2.001l-0.021,0.083l-0.05,0.107c-0.03,0.031 -0.055,0.066 -0.09,0.093c-0.09,0.069 -0.118,0.069 -0.226,0.1c-0.09,0.087 -0.136,0.194 -0.209,0.292c-0.063,0.083 -0.13,0.165 -0.202,0.244c-0.086,0.094 -0.179,0.185 -0.277,0.272c0,0 0.048,-0.015 0.048,-0.015l0.174,-0.012l0.17,0.029c0.049,0.023 0.099,0.046 0.148,0.069Zm2.936,1.007c0.095,0.059 0.192,0.121 0.234,0.206c0.045,0.091 0.031,0.188 0.034,0.28c0.01,0.265 -0.025,0.561 0.177,0.775c0.05,0.051 0.536,0.178 0.754,0.064c0.145,-0.076 0.243,-0.194 0.347,-0.306c0,0 0.085,-0.038 -0.091,0.042c-0.327,0.151 -0.832,0.064 -0.951,-0.262c-0.036,-0.099 -0.034,-0.202 -0.02,-0.302c0,0 0.027,-0.102 0.015,-0.063c0,0.002 0.01,-0.039 0.017,-0.075c0.352,-1.714 0.654,-3.428 0.979,-5.186l0.003,-0.02c-0.402,0.068 -0.45,0.491 -0.545,0.848c-0.163,0.614 -0.317,1.229 -0.426,1.849l-0.014,0.052c-0.262,0.714 -0.644,1.405 -1.026,2.089l0.155,-0.04l0.185,0.002c0.058,0.015 0.116,0.031 0.173,0.047Zm-2.835,1.258l-0.001,0.015c0,0 0.006,-0.04 0.001,-0.015Zm0.002,-0.01c0,0 0,0 0,0Zm-4.145,-0.938c-0.054,0.278 -0.102,0.557 -0.142,0.836c0.109,-0.228 0.2,-0.462 0.278,-0.697c0,0 0.035,0.008 -0.045,-0.063c-0.045,-0.042 -0.084,-0.112 -0.091,-0.076Zm8.521,0.305l-0.004,0.014c0,0 0.009,-0.028 0.004,-0.014Zm4.434,-6.781c-0.554,0.01 -0.959,0.449 -1.238,0.801c-0.75,0.945 -1.081,2.047 -1.277,3.121l-0.011,0.067l-0.035,0.098c-0.024,0.043 -0.048,0.086 -0.071,0.129c-0.266,0.485 -0.519,0.974 -0.769,1.464l-0.007,0.015l0.091,-0.051l0.185,-0.041c0.064,0.003 0.13,-0.002 0.193,0.009c0.126,0.024 0.237,0.081 0.31,0.161c0.159,0.171 0.152,0.438 0.449,0.614c0.223,0.132 0.532,0.135 0.844,0.076c0,0 -0.302,-0.075 -0.46,-0.211c-0.134,-0.115 -0.205,-0.251 -0.237,-0.409c-0.009,-0.043 -0.011,-0.045 -0.014,-0.058c-0.053,-0.273 -0.052,-0.553 -0.053,-0.827c0,-0.06 -0.003,-0.1 0.026,-0.165c0.046,-0.106 0.09,-0.12 0.192,-0.196c0.072,-0.04 0.158,-0.117 0.158,-0.117l-0.108,-0.032l-0.136,-0.092c-0.058,-0.079 -0.099,-0.163 -0.112,-0.253c-0.001,-0.005 0.029,-0.507 0.1,-0.916c0.142,-0.818 0.38,-1.648 0.959,-2.346c0.174,-0.21 0.39,-0.402 0.643,-0.563l0.109,-0.054c0.283,-0.104 0.634,-0.09 0.85,0.125c0.01,-0.087 -0.004,-0.221 -0.004,-0.221c-0.134,-0.108 -0.365,-0.129 -0.577,-0.128Zm7.457,6.294c0,0 0.002,-0.001 0,0Zm0.001,-0.001c0,0 0.021,-0.014 0,0Zm-23.822,-0.16c0,0 0.021,-0.008 0,0Zm29.564,-2.036c-0.218,0.003 -0.39,0.153 -0.508,0.283c-0.407,0.446 -0.52,1.106 -0.104,1.516c0.009,0.009 0.019,0.018 0.029,0.027c0.087,0.073 0.235,0.116 0.364,0.077c0.442,-0.134 0.651,-0.551 0.711,-0.952c0.044,-0.296 0.021,-0.625 -0.253,-0.855c-0.06,-0.051 -0.142,-0.096 -0.239,-0.096Zm-15.234,1.742l0.006,0.016c0,0 -0.01,-0.035 -0.006,-0.016Zm-0.002,-0.008c0.001,0.004 0,-0.001 0,0Zm8.452,-5.473c-1.682,1.651 -3.126,3.434 -4.533,5.268c0.038,-0.01 0.076,-0.02 0.114,-0.031c1.329,-0.364 2.648,-0.8 4.047,-0.911c0.181,-0.087 0.29,-0.237 0.38,-0.378c0,0 0.048,-0.146 0.063,-0.257c0.023,-0.178 0.033,-0.357 0.058,-0.536c0,0 -0.041,0.151 -0.073,0.261c-0.06,0.204 -0.118,0.411 -0.238,0.598l-0.086,0.094c-0.174,0.107 -0.407,0.148 -0.627,0.19c-0.561,0.108 -1.134,0.178 -1.649,0.363l-0.18,0.038c-0.062,-0.003 -0.126,0.002 -0.187,-0.009c-0.123,-0.023 -0.231,-0.077 -0.305,-0.153c-0.05,-0.051 -0.086,-0.136 -0.086,-0.136c-0.02,-0.068 -0.018,-0.079 -0.018,-0.112c-0.002,-0.263 0.211,-0.506 0.389,-0.755c0.864,-1.206 1.882,-2.353 2.895,-3.488l0.072,-0.081c-0.012,0.012 -0.024,0.024 -0.036,0.035Zm-32.543,2.437c0.391,0.01 0.732,0.276 0.632,0.606c-0.039,0.131 -0.113,0.254 -0.193,0.375c0,0 -0.197,0.32 -0.372,0.566c-0.228,0.321 -0.471,0.637 -0.712,0.954c0.023,-0.013 0.046,-0.025 0.069,-0.038c0.746,-0.413 1.417,-0.923 1.78,-1.532c0.275,-0.428 0.649,-0.909 0.446,-1.326c-0.116,-0.241 -0.745,-0.159 -1.298,-0.021c-0.666,0.165 -1.292,0.411 -1.884,0.694c0.32,-0.096 0.652,-0.166 0.989,-0.219c0.184,-0.029 0.331,-0.061 0.543,-0.059Zm27.726,0.807c-0.35,0.477 -0.69,0.959 -1.043,1.434l-0.041,0.054c0.4,-0.466 0.75,-0.955 1.064,-1.456c0.004,-0.008 0.009,-0.015 0.013,-0.022c0.003,-0.004 0.008,-0.012 0.007,-0.01Zm5.872,0.87c-0.003,0.015 -0.004,0.049 0.004,-0.019c-0.001,0.006 -0.002,0.012 -0.004,0.019Zm-1.048,-0.161c-0.008,0.02 -0.013,0.041 -0.015,0.062c0.005,-0.021 0.023,-0.082 0.015,-0.062Zm-15.228,-0.02c0.045,-0.008 0.01,-0.003 0,0Zm-4.438,-2.023c0,0 0.001,-0.001 0,0Zm0,-0.001c0,0 0.017,-0.012 0,0Zm17.903,-1.498c-0.231,0.066 -0.462,0.135 -0.682,0.219c0,0 -0.044,0.118 -0.079,0.228c-0.029,0.082 -0.041,0.107 -0.063,0.161c-0.077,0.191 -0.159,0.382 -0.24,0.573c0.351,-0.4 0.716,-0.796 1.091,-1.186c0,0 -0.017,0.002 -0.027,0.005Zm3.093,-1.887c-0.093,0.028 -0.146,0.062 -0.146,0.062c0,0 -0.106,0.082 -0.248,0.118c-1.106,0.254 -2.216,0.557 -3.319,0.753c-0.402,0.071 -0.725,0.31 -0.953,0.569l-0.002,0.002c-0.087,0.146 -0.131,0.305 -0.17,0.462c0.005,-0.012 0.009,-0.025 0.014,-0.038c0.089,-0.239 0.286,-0.423 0.631,-0.55c0.75,-0.274 1.561,-0.457 2.368,-0.644l0.041,-0.009c0.166,-0.015 0.217,-0.037 0.378,0.015c0.251,0.082 0.406,0.313 0.256,0.533c0.377,-0.422 0.754,-0.845 1.145,-1.26c0,0 0.032,-0.021 0.005,-0.013Zm-1.055,-0.321c-0.006,0.016 -0.013,0.026 -0.019,0.073c0,0 0.049,-0.137 0.019,-0.073Zm0.055,-0.09c-0.111,0.145 0.031,-0.033 0,0Z" style="fill:#fff;"/><path d="M32.907,4.91c0.184,-0.246 0.969,-1.856 1.001,-2.03c0.032,-0.175 0.07,-0.341 0.114,-0.498c0.043,-0.158 0.101,-0.296 0.173,-0.416c0.015,-0.028 0.06,-0.078 0.135,-0.151c0.075,-0.073 0.166,-0.151 0.273,-0.236c0.107,-0.084 0.236,-0.164 0.386,-0.238c0.151,-0.074 0.309,-0.127 0.475,-0.157c0.115,-0.018 0.307,-0.059 0.576,-0.12l2.75,-0.633c0.013,-0.003 0.019,-0.008 0.02,-0.016c0.04,-0.025 0.086,-0.052 0.138,-0.08c0.092,-0.045 0.247,-0.092 0.465,-0.142c0.293,-0.052 0.523,-0.053 0.689,-0.004c0.167,0.05 0.147,0.186 -0.059,0.408c-0.232,0.237 -0.514,0.538 -0.844,0.905c-0.331,0.367 -0.678,0.755 -1.044,1.166c-0.365,0.41 -0.724,0.825 -1.077,1.245c-0.354,0.42 -0.67,0.805 -0.949,1.156c-0.278,0.35 -0.503,0.649 -0.673,0.895c-0.17,0.246 -0.244,0.395 -0.223,0.446c0.298,-0.109 0.597,-0.187 0.896,-0.236c0.3,-0.049 0.706,-0.125 1.217,-0.226c0.043,-0.066 0.085,-0.159 0.126,-0.28c0.04,-0.121 0.078,-0.247 0.114,-0.379c0.035,-0.131 0.077,-0.262 0.124,-0.393c0.048,-0.13 0.108,-0.247 0.178,-0.351c0.059,-0.101 0.19,-0.213 0.395,-0.336c0.204,-0.122 0.397,-0.217 0.578,-0.282c0.182,-0.066 0.312,-0.084 0.392,-0.054c0.079,0.029 0.03,0.144 -0.149,0.345c-0.125,0.148 -0.219,0.311 -0.284,0.489c-0.064,0.178 -0.109,0.353 -0.134,0.526c-0.026,0.174 -0.045,0.339 -0.057,0.497c-0.013,0.158 -0.042,0.299 -0.089,0.421c-0.002,0.016 -0.027,0.06 -0.077,0.131c-0.049,0.071 -0.111,0.145 -0.187,0.222c-0.075,0.077 -0.162,0.147 -0.261,0.21c-0.1,0.062 -0.2,0.097 -0.301,0.105c-0.418,0.032 -0.829,0.091 -1.232,0.175c-0.403,0.085 -0.798,0.18 -1.184,0.284c-0.385,0.105 -0.759,0.211 -1.119,0.318c-0.361,0.106 -0.702,0.197 -1.022,0.27c-0.334,0.077 -0.499,0.059 -0.497,-0.053c0.002,-0.112 0.074,-0.263 0.215,-0.455c0.714,-0.937 1.446,-1.862 2.196,-2.775c0.75,-0.913 1.636,-1.865 2.656,-2.856c-0.218,0.05 -0.446,0.104 -0.683,0.163c-0.237,0.058 -0.469,0.118 -0.694,0.177c-0.225,0.06 -0.434,0.12 -0.627,0.18c-0.194,0.061 -0.356,0.118 -0.486,0.172c-0.078,0.034 -0.132,0.088 -0.163,0.163c-0.031,0.075 -0.064,0.168 -0.097,0.279c-0.034,0.111 -0.476,1.14 -0.524,1.248c-0.19,0.406 -0.43,0.847 -0.721,1.322c-0.29,0.476 -0.61,0.93 -0.957,1.363c-0.348,0.433 -0.708,0.81 -1.081,1.133c-0.373,0.322 -0.731,0.528 -1.072,0.615c-0.101,0.024 -0.234,0.05 -0.398,0.078c-0.165,0.029 -0.342,0.034 -0.531,0.018c-0.19,-0.017 -0.379,-0.076 -0.569,-0.176c-0.19,-0.1 -0.354,-0.265 -0.493,-0.493c-0.042,-0.064 -0.077,-0.141 -0.106,-0.231c-0.296,0.556 -0.57,0.992 -0.824,1.309c-0.139,0.162 -0.268,0.291 -0.388,0.389c-0.12,0.097 -0.25,0.164 -0.389,0.201c-0.139,0.036 -0.294,0.046 -0.465,0.03c-0.17,-0.017 -0.376,-0.062 -0.616,-0.137c-0.177,-0.052 -0.304,-0.193 -0.379,-0.421c-0.076,-0.229 -0.114,-0.515 -0.114,-0.859c-0.177,0.338 -0.348,0.637 -0.512,0.898c-0.165,0.261 -0.323,0.483 -0.474,0.666c-0.139,0.162 -0.269,0.292 -0.389,0.389c-0.12,0.097 -0.247,0.164 -0.379,0.199c-0.133,0.035 -0.285,0.044 -0.456,0.028c-0.17,-0.017 -0.376,-0.062 -0.616,-0.137c-0.202,-0.056 -0.329,-0.247 -0.379,-0.575c-0.051,-0.327 -0.054,-0.723 -0.01,-1.189c0.04,-0.414 0.104,-0.858 0.194,-1.331c-0.032,0.03 -0.065,0.061 -0.099,0.091c-0.398,0.356 -0.819,0.627 -1.261,0.812c-0.215,0.635 -0.493,1.235 -0.835,1.801c-0.341,0.566 -0.727,0.996 -1.156,1.29c-0.177,0.171 -0.329,0.271 -0.456,0.3c-0.101,0.023 -0.233,0.049 -0.398,0.077c-0.164,0.029 -0.344,0.035 -0.54,0.02c-0.196,-0.015 -0.395,-0.072 -0.598,-0.169c-0.202,-0.098 -0.385,-0.257 -0.55,-0.48c-0.078,-0.11 -0.134,-0.261 -0.168,-0.453c-0.029,0.036 -0.058,0.072 -0.088,0.108c-0.36,0.436 -0.733,0.819 -1.119,1.149c-0.385,0.33 -0.749,0.539 -1.09,0.627c-0.101,0.023 -0.234,0.049 -0.398,0.078c-0.165,0.028 -0.342,0.034 -0.531,0.017c-0.19,-0.017 -0.38,-0.075 -0.569,-0.175c-0.19,-0.101 -0.354,-0.265 -0.494,-0.493c-0.084,-0.151 -0.142,-0.366 -0.174,-0.643c-0.136,0.19 -0.277,0.375 -0.423,0.557c-0.348,0.433 -0.708,0.811 -1.081,1.134c-0.373,0.322 -0.73,0.527 -1.071,0.615c-0.102,0.023 -0.234,0.049 -0.399,0.078c-0.164,0.028 -0.341,0.034 -0.531,0.017c-0.189,-0.016 -0.379,-0.075 -0.569,-0.175c-0.189,-0.101 -0.354,-0.265 -0.493,-0.493c-0.114,-0.178 -0.18,-0.448 -0.199,-0.811c-0.019,-0.362 0.003,-0.767 0.066,-1.213c0.064,-0.447 0.165,-0.911 0.304,-1.394c0.139,-0.482 0.322,-0.937 0.55,-1.366c0.227,-0.428 0.49,-0.802 0.787,-1.121c0.297,-0.319 0.629,-0.535 0.996,-0.647c0.164,-0.047 0.332,-0.069 0.502,-0.067c0.171,0.003 0.332,0.021 0.484,0.056c0.152,0.035 0.278,0.085 0.379,0.15c0.101,0.065 0.164,0.131 0.19,0.2c0.05,0.155 0.041,0.371 -0.029,0.647c-0.069,0.276 -0.177,0.584 -0.322,0.924c-0.145,0.34 -0.316,0.688 -0.512,1.044c-0.196,0.357 -0.402,0.689 -0.617,0.999c-0.214,0.309 -0.426,0.581 -0.635,0.815c-0.208,0.233 -0.389,0.391 -0.54,0.472c0,0.232 0.006,0.424 0.019,0.574c0.012,0.15 0.025,0.243 0.038,0.277c0.025,0.161 0.11,0.262 0.256,0.303c0.145,0.041 0.35,-0.057 0.616,-0.295c0.063,-0.061 0.164,-0.184 0.303,-0.369c0.139,-0.185 0.301,-0.401 0.484,-0.648c0.16,-0.215 0.328,-0.445 0.503,-0.689l0.151,-0.211c0.175,-0.244 0.342,-0.473 0.503,-0.689c0.156,-0.21 0.297,-0.4 0.421,-0.569c0.059,-0.287 0.133,-0.581 0.224,-0.882c0.145,-0.484 0.328,-0.939 0.55,-1.366c0.221,-0.427 0.48,-0.8 0.777,-1.119c0.297,-0.319 0.629,-0.535 0.996,-0.647c0.164,-0.047 0.335,-0.07 0.512,-0.069c0.177,0.001 0.338,0.02 0.484,0.056c0.145,0.036 0.268,0.087 0.369,0.152c0.102,0.065 0.165,0.131 0.19,0.2c0.051,0.155 0.044,0.338 -0.019,0.547c-0.063,0.21 -0.155,0.412 -0.275,0.607c-0.12,0.195 -0.25,0.366 -0.389,0.514c-0.139,0.148 -0.259,0.239 -0.36,0.271c-0.101,0.042 -0.142,-0.014 -0.123,-0.166c0.019,-0.153 0.053,-0.326 0.104,-0.519c0.051,-0.193 0.082,-0.365 0.095,-0.516c0.012,-0.152 -0.038,-0.21 -0.152,-0.174c-0.303,0.199 -0.553,0.459 -0.749,0.778c-0.196,0.319 -0.348,0.663 -0.455,1.031c-0.108,0.368 -0.187,0.744 -0.237,1.127c-0.051,0.383 -0.079,0.733 -0.086,1.051c-0.006,0.317 -0.003,0.585 0.01,0.805c0.013,0.22 0.025,0.352 0.038,0.396c0.025,0.161 0.11,0.262 0.256,0.303c0.145,0.041 0.351,-0.057 0.616,-0.295c0.063,-0.061 0.168,-0.185 0.313,-0.371c0.146,-0.187 0.316,-0.41 0.512,-0.668c0.196,-0.259 0.402,-0.534 0.617,-0.825c0.214,-0.291 0.414,-0.562 0.597,-0.813c0.013,-0.018 0.026,-0.036 0.039,-0.053c0.061,-0.28 0.139,-0.571 0.236,-0.874c0.152,-0.476 0.332,-0.933 0.54,-1.371c0.209,-0.438 0.446,-0.841 0.712,-1.208c0.265,-0.368 0.556,-0.662 0.872,-0.883c0.177,-0.162 0.329,-0.262 0.455,-0.3c0.089,-0.02 0.218,-0.046 0.389,-0.076c0.171,-0.03 0.354,-0.037 0.55,-0.022c0.196,0.016 0.395,0.072 0.597,0.17c0.203,0.097 0.386,0.257 0.55,0.479c0.139,0.191 0.209,0.498 0.209,0.92c0,0.423 -0.057,0.898 -0.171,1.426c0.177,-0.106 0.348,-0.238 0.512,-0.397c0.165,-0.158 0.31,-0.335 0.436,-0.532c0.089,-0.141 0.187,-0.231 0.294,-0.269c0.035,-0.013 0.068,-0.021 0.1,-0.027c0.014,-0.055 0.028,-0.111 0.043,-0.166c0.126,-0.484 0.243,-0.911 0.351,-1.279c0.107,-0.368 0.18,-0.613 0.218,-0.733c0.05,-0.16 0.155,-0.284 0.313,-0.371c0.158,-0.088 0.322,-0.144 0.493,-0.169c0.17,-0.026 0.322,-0.016 0.455,0.027c0.133,0.044 0.199,0.117 0.199,0.219c0,0.019 -0.035,0.175 -0.104,0.47c-0.07,0.295 -0.155,0.66 -0.256,1.097c-0.102,0.436 -0.212,0.908 -0.332,1.414c-0.12,0.505 -0.234,0.98 -0.342,1.422c-0.107,0.443 -0.199,0.817 -0.275,1.122c-0.075,0.306 -0.113,0.472 -0.113,0.5c-0.038,0.167 -0.01,0.239 0.085,0.217c0.095,-0.021 0.231,-0.132 0.408,-0.33c0.038,-0.037 0.136,-0.189 0.294,-0.458c0.158,-0.268 0.335,-0.578 0.531,-0.93c0.196,-0.351 0.385,-0.711 0.569,-1.078c0.183,-0.367 0.319,-0.673 0.407,-0.916c0.051,-0.29 0.108,-0.568 0.171,-0.833c0.063,-0.265 0.123,-0.509 0.18,-0.731c0.057,-0.222 0.108,-0.413 0.152,-0.571c0.044,-0.159 0.079,-0.279 0.104,-0.359c0.051,-0.16 0.155,-0.284 0.313,-0.371c0.158,-0.088 0.323,-0.144 0.493,-0.169c0.171,-0.026 0.323,-0.016 0.455,0.027c0.133,0.044 0.2,0.117 0.2,0.219c0,0.019 -0.026,0.162 -0.076,0.429c-0.051,0.267 -0.111,0.601 -0.181,1.002c-0.069,0.402 -0.148,0.833 -0.237,1.295c-0.088,0.461 -0.173,0.894 -0.256,1.299c-0.082,0.404 -0.148,0.747 -0.199,1.028c-0.05,0.28 -0.082,0.436 -0.095,0.467c-0.025,0.164 0.01,0.235 0.105,0.213c0.095,-0.022 0.23,-0.132 0.408,-0.331c0.025,-0.024 0.079,-0.118 0.161,-0.28c0.082,-0.163 0.18,-0.358 0.294,-0.584c0.113,-0.225 0.24,-0.473 0.379,-0.741c0.139,-0.269 0.275,-0.526 0.408,-0.77c0.05,-0.092 0.098,-0.181 0.145,-0.265c0.063,-0.365 0.15,-0.743 0.262,-1.131c0.14,-0.483 0.323,-0.938 0.55,-1.367c0.228,-0.428 0.49,-0.802 0.787,-1.121c0.298,-0.319 0.63,-0.535 0.996,-0.647c0.165,-0.047 0.332,-0.069 0.503,-0.067c0.17,0.003 0.332,0.022 0.483,0.056c0.152,0.035 0.278,0.085 0.38,0.15c0.101,0.065 0.164,0.132 0.189,0.2c0.051,0.156 0.041,0.372 -0.028,0.648c-0.07,0.276 -0.177,0.584 -0.323,0.924c-0.145,0.339 -0.316,0.688 -0.512,1.044c-0.196,0.356 -0.401,0.689 -0.616,0.998c-0.215,0.31 -0.427,0.581 -0.635,0.815c-0.209,0.234 -0.389,0.391 -0.541,0.473c0,0.232 0.007,0.423 0.019,0.573c0.013,0.151 0.025,0.243 0.038,0.277c0.025,0.162 0.111,0.263 0.256,0.304c0.146,0.04 0.351,-0.058 0.616,-0.295c0.064,-0.061 0.165,-0.184 0.304,-0.37c0.139,-0.185 0.3,-0.401 0.484,-0.647c0.16,-0.216 0.328,-0.446 0.503,-0.69l0.15,-0.21c0.175,-0.244 0.343,-0.474 0.503,-0.69Zm-14.157,2.28c-0.025,-0.18 -0.006,-0.349 0.057,-0.507c0.063,-0.159 0.148,-0.295 0.256,-0.408c0.107,-0.112 0.228,-0.198 0.36,-0.257c0.133,-0.058 0.256,-0.082 0.37,-0.071c0.025,-0.256 0.041,-0.471 0.047,-0.644c0.007,-0.174 0.004,-0.282 -0.009,-0.326l-0.038,-0.074c-0.303,0.199 -0.563,0.47 -0.777,0.812c-0.215,0.342 -0.396,0.713 -0.541,1.114c-0.145,0.4 -0.259,0.807 -0.341,1.22c-0.083,0.414 -0.146,0.793 -0.19,1.138c-0.044,0.344 -0.066,0.635 -0.066,0.872c0,0.236 0.006,0.377 0.019,0.42c0,0.056 0.006,0.087 0.019,0.093c0.354,-0.239 0.651,-0.572 0.891,-0.999c0.24,-0.426 0.43,-0.883 0.569,-1.37c-0.342,-0.173 -0.55,-0.51 -0.626,-1.013Zm-8.572,0.049c-0.278,0.175 -0.509,0.402 -0.692,0.681c-0.184,0.279 -0.332,0.578 -0.446,0.897c-0.114,0.319 -0.202,0.648 -0.266,0.987c-0.063,0.34 -0.101,0.664 -0.113,0.974c0.126,-0.215 0.268,-0.457 0.426,-0.725c0.158,-0.269 0.313,-0.544 0.465,-0.825c0.152,-0.281 0.294,-0.55 0.427,-0.808c0.132,-0.258 0.234,-0.481 0.303,-0.669c0.07,-0.188 0.101,-0.332 0.095,-0.433c-0.006,-0.1 -0.073,-0.127 -0.199,-0.079Zm21.392,-4.919c-0.278,0.175 -0.509,0.403 -0.692,0.682c-0.183,0.279 -0.332,0.577 -0.446,0.896c-0.113,0.319 -0.202,0.648 -0.265,0.988c-0.063,0.339 -0.101,0.664 -0.114,0.973c0.127,-0.215 0.269,-0.456 0.427,-0.725c0.158,-0.268 0.313,-0.543 0.465,-0.824c0.151,-0.281 0.293,-0.551 0.426,-0.809c0.133,-0.258 0.234,-0.481 0.304,-0.669c0.069,-0.187 0.101,-0.332 0.094,-0.432c-0.006,-0.101 -0.072,-0.128 -0.199,-0.08Z" style="fill:#a309c4;fill-rule:nonzero;"/><path d="M7.162,5.633c-0.189,0.321 -0.471,0.632 -0.844,0.934c-0.373,0.302 -0.746,0.555 -1.118,0.76c-0.373,0.204 -0.699,0.342 -0.977,0.414c-0.278,0.072 -0.417,0.038 -0.417,-0.101c0,-0.037 0.056,-0.132 0.17,-0.286c0.114,-0.153 0.253,-0.338 0.417,-0.554c0.165,-0.215 0.342,-0.451 0.532,-0.707c0.189,-0.255 0.354,-0.499 0.493,-0.73c0.101,-0.152 0.158,-0.266 0.17,-0.342c0.013,-0.075 -0.069,-0.102 -0.246,-0.08c-0.885,0.11 -1.559,0.308 -2.02,0.593c-0.462,0.285 -0.765,0.625 -0.91,1.019c-0.146,0.395 -0.165,0.829 -0.057,1.303c0.107,0.474 0.294,0.959 0.559,1.456c0.266,0.496 0.572,0.987 0.92,1.473c0.348,0.486 0.686,0.936 1.015,1.35c0.328,0.414 0.616,0.778 0.863,1.091c0.246,0.312 0.401,0.544 0.464,0.694c0.101,0.257 0.12,0.498 0.057,0.724c-0.063,0.226 -0.174,0.435 -0.332,0.627c-0.158,0.191 -0.347,0.363 -0.569,0.516c-0.221,0.153 -0.452,0.287 -0.692,0.4c-0.24,0.114 -0.471,0.208 -0.692,0.282c-0.221,0.074 -0.402,0.124 -0.541,0.151c-0.518,0.111 -0.942,0.117 -1.27,0.019c-0.329,-0.098 -0.585,-0.248 -0.768,-0.448c-0.184,-0.2 -0.301,-0.426 -0.351,-0.68c-0.051,-0.254 -0.051,-0.481 0,-0.683c0.025,-0.114 0.076,-0.211 0.151,-0.29c0.076,-0.08 0.152,-0.135 0.228,-0.168c0.076,-0.033 0.145,-0.046 0.209,-0.04c0.063,0.006 0.094,0.028 0.094,0.065c0.013,0.24 0.105,0.446 0.275,0.62c0.171,0.174 0.373,0.302 0.607,0.384c0.234,0.082 0.474,0.122 0.721,0.119c0.247,-0.003 0.439,-0.059 0.578,-0.169c0.14,-0.111 0.203,-0.274 0.19,-0.491c-0.013,-0.217 -0.152,-0.494 -0.417,-0.832c-0.101,-0.127 -0.269,-0.32 -0.503,-0.579c-0.234,-0.258 -0.486,-0.568 -0.758,-0.929c-0.272,-0.361 -0.541,-0.761 -0.806,-1.202c-0.266,-0.44 -0.484,-0.901 -0.655,-1.381c-0.17,-0.48 -0.265,-0.972 -0.284,-1.476c-0.019,-0.504 0.076,-0.999 0.284,-1.484c0.209,-0.486 0.56,-0.957 1.053,-1.413c0.493,-0.457 1.176,-0.874 2.048,-1.252c0.632,-0.274 1.223,-0.473 1.773,-0.597c0.55,-0.125 0.993,-0.145 1.328,-0.062c0.335,0.084 0.521,0.284 0.559,0.599c0.038,0.316 -0.139,0.777 -0.531,1.383Z" style="fill:#a309c4;fill-rule:nonzero;"/><path d="M37.006,12.954c0.065,-0.396 0.168,-0.816 0.312,-1.26c0.151,-0.47 0.331,-0.92 0.54,-1.351c0.209,-0.43 0.446,-0.824 0.711,-1.181c0.266,-0.358 0.557,-0.641 0.873,-0.85c0.177,-0.155 0.328,-0.249 0.455,-0.283c0.088,-0.017 0.218,-0.037 0.389,-0.061c0.17,-0.023 0.354,-0.024 0.55,-0.001c0.196,0.023 0.395,0.087 0.597,0.192c0.202,0.105 0.386,0.272 0.55,0.5c0.139,0.196 0.209,0.506 0.209,0.928c0,0.423 -0.057,0.896 -0.171,1.419c0.177,-0.099 0.348,-0.225 0.512,-0.377c0.164,-0.152 0.31,-0.324 0.436,-0.516c0.089,-0.137 0.187,-0.223 0.294,-0.258c0.02,-0.006 0.039,-0.012 0.058,-0.016c0.025,-0.073 0.05,-0.143 0.075,-0.212c0.107,-0.299 0.186,-0.509 0.237,-0.63c0.076,-0.163 0.196,-0.286 0.36,-0.369c0.165,-0.083 0.332,-0.133 0.503,-0.152c0.171,-0.019 0.319,-0.004 0.445,0.046c0.127,0.05 0.184,0.128 0.171,0.232c0,0.019 -0.035,0.144 -0.104,0.376c-0.07,0.231 -0.152,0.514 -0.247,0.848c-0.094,0.334 -0.199,0.698 -0.313,1.091c-0.113,0.393 -0.218,0.762 -0.313,1.105c-0.094,0.343 -0.177,0.635 -0.246,0.876c-0.07,0.241 -0.111,0.377 -0.123,0.407c-0.064,0.17 -0.048,0.246 0.047,0.228c0.095,-0.018 0.243,-0.126 0.446,-0.323c0.025,-0.023 0.088,-0.116 0.189,-0.28c0.102,-0.163 0.222,-0.358 0.361,-0.585c0.139,-0.226 0.291,-0.473 0.455,-0.742c0.164,-0.268 0.322,-0.524 0.474,-0.767c0.152,-0.242 0.294,-0.458 0.427,-0.646c0.132,-0.188 0.237,-0.317 0.313,-0.387c0.038,-0.036 0.11,-0.063 0.218,-0.084c0.107,-0.021 0.208,-0.024 0.303,-0.01c0.095,0.015 0.168,0.052 0.218,0.112c0.051,0.06 0.045,0.147 -0.019,0.261c-0.48,0.873 -0.929,1.648 -1.346,2.328c-0.417,0.679 -0.797,1.2 -1.138,1.563c-0.304,0.327 -0.575,0.519 -0.816,0.574c-0.24,0.056 -0.587,0.002 -1.043,-0.161c-0.177,-0.069 -0.29,-0.237 -0.341,-0.506c-0.051,-0.269 -0.054,-0.589 -0.01,-0.959c0.045,-0.371 0.117,-0.768 0.219,-1.192c0.026,-0.111 0.053,-0.221 0.081,-0.331c-0.363,0.293 -0.744,0.516 -1.143,0.668c-0.215,0.626 -0.494,1.216 -0.835,1.769c-0.341,0.553 -0.727,0.969 -1.157,1.247c-0.177,0.164 -0.329,0.258 -0.455,0.282c-0.101,0.019 -0.234,0.04 -0.398,0.063c-0.165,0.022 -0.345,0.022 -0.541,-0.001c-0.196,-0.023 -0.395,-0.087 -0.597,-0.192c-0.202,-0.105 -0.386,-0.271 -0.55,-0.5c-0.007,-0.01 -0.014,-0.02 -0.02,-0.031c-0.048,0.096 -0.096,0.188 -0.143,0.277c-0.143,0.267 -0.278,0.5 -0.407,0.699c-0.129,0.199 -0.248,0.344 -0.357,0.435c-0.23,0.194 -0.502,0.296 -0.814,0.306c-0.312,0.01 -0.621,-0.028 -0.926,-0.114c-0.306,-0.085 -0.57,-0.197 -0.794,-0.333c-0.224,-0.136 -0.357,-0.261 -0.397,-0.372c-0.027,-0.075 -0.041,-0.219 -0.041,-0.434c0,-0.214 0.01,-0.458 0.031,-0.731c0.02,-0.273 0.047,-0.56 0.081,-0.86c0.034,-0.301 0.068,-0.582 0.102,-0.843c0.034,-0.26 0.064,-0.478 0.091,-0.653c0.028,-0.174 0.041,-0.272 0.041,-0.292c0.014,-0.132 0.01,-0.216 -0.01,-0.252c-0.02,-0.036 -0.048,-0.041 -0.082,-0.014c-0.033,0.026 -0.074,0.074 -0.122,0.143c-0.047,0.069 -0.091,0.132 -0.132,0.19c-0.19,0.256 -0.387,0.625 -0.59,1.108c-0.204,0.483 -0.408,0.99 -0.611,1.523c-0.204,0.533 -0.394,1.04 -0.57,1.523c-0.177,0.482 -0.326,0.84 -0.448,1.073l-0.02,0.049l-0.021,0.004c-0.027,0.045 -0.041,0.047 -0.041,0.007c-0.23,0.035 -0.444,0.031 -0.641,-0.011c-0.197,-0.042 -0.373,-0.103 -0.529,-0.182c-0.156,-0.08 -0.282,-0.173 -0.377,-0.279c-0.095,-0.107 -0.163,-0.201 -0.203,-0.283c-0.028,-0.074 -0.041,-0.219 -0.041,-0.433c0,-0.215 0.013,-0.459 0.041,-0.733c0.027,-0.275 0.057,-0.562 0.091,-0.863c0.034,-0.301 0.068,-0.581 0.102,-0.842c0.034,-0.261 0.061,-0.478 0.081,-0.651c0.021,-0.174 0.031,-0.27 0.031,-0.29c0.014,-0.133 0.014,-0.217 0,-0.255c-0.014,-0.037 -0.037,-0.042 -0.071,-0.016c-0.034,0.027 -0.075,0.074 -0.122,0.143c-0.048,0.069 -0.092,0.133 -0.133,0.19c-0.108,0.161 -0.23,0.386 -0.366,0.676c-0.136,0.291 -0.272,0.616 -0.407,0.976c-0.136,0.36 -0.268,0.739 -0.397,1.138c-0.129,0.399 -0.258,0.787 -0.387,1.166c-0.129,0.379 -0.251,0.729 -0.367,1.05c-0.115,0.321 -0.213,0.585 -0.295,0.79c0,0.02 -0.003,0.045 -0.01,0.076c-0.007,0.032 -0.01,0.057 -0.01,0.077c-0.014,0.142 -0.099,0.194 -0.255,0.154c-0.156,-0.04 -0.322,-0.115 -0.498,-0.226c-0.177,-0.111 -0.336,-0.237 -0.479,-0.379c-0.142,-0.142 -0.207,-0.249 -0.193,-0.322c0.013,-0.052 0.02,-0.241 0.02,-0.565l0,-2.691c0,-0.534 0.003,-1.038 0.01,-1.513c0.007,-0.475 0.021,-0.881 0.041,-1.219c0.02,-0.338 0.044,-0.539 0.071,-0.605c0.041,-0.097 0.17,-0.204 0.387,-0.321c0.217,-0.116 0.444,-0.215 0.682,-0.295c0.238,-0.081 0.448,-0.136 0.631,-0.166c0.183,-0.031 0.268,-0.014 0.255,0.048c-0.068,0.282 -0.126,0.57 -0.173,0.863c-0.048,0.293 -0.092,0.609 -0.133,0.945c-0.04,0.337 -0.074,0.703 -0.102,1.097c-0.027,0.394 -0.054,0.828 -0.081,1.301c0.163,-0.35 0.353,-0.743 0.57,-1.178c0.217,-0.436 0.434,-0.854 0.652,-1.255c0.217,-0.4 0.42,-0.753 0.61,-1.059c0.19,-0.306 0.333,-0.508 0.428,-0.606c0.136,-0.136 0.319,-0.213 0.55,-0.233c0.23,-0.019 0.454,-0.01 0.671,0.028c0.218,0.038 0.408,0.089 0.57,0.153c0.163,0.063 0.245,0.11 0.245,0.139c0,0.02 -0.004,0.128 -0.01,0.324c-0.007,0.196 -0.014,0.439 -0.021,0.729c-0.007,0.291 -0.013,0.609 -0.02,0.954c-0.007,0.345 -0.01,0.672 -0.01,0.981c0.163,-0.36 0.346,-0.744 0.549,-1.152c0.204,-0.408 0.404,-0.798 0.601,-1.17c0.197,-0.372 0.38,-0.696 0.55,-0.973c0.169,-0.277 0.302,-0.464 0.397,-0.562c0.135,-0.136 0.319,-0.214 0.549,-0.233c0.231,-0.02 0.455,-0.01 0.672,0.028c0.217,0.038 0.407,0.089 0.57,0.152c0.163,0.063 0.244,0.11 0.244,0.14c0,0.02 -0.006,0.153 -0.02,0.4c-0.013,0.247 -0.03,0.552 -0.051,0.915c-0.02,0.363 -0.041,0.755 -0.061,1.178c-0.02,0.423 -0.041,0.823 -0.061,1.201c-0.02,0.377 -0.041,0.708 -0.061,0.991c-0.02,0.283 -0.037,0.461 -0.051,0.533c-0.013,0.172 0.007,0.28 0.061,0.325c0.054,0.044 0.126,0.051 0.214,0.019c0.088,-0.032 0.176,-0.092 0.265,-0.178c0.088,-0.087 0.159,-0.176 0.213,-0.266c0.109,-0.2 0.251,-0.482 0.428,-0.845c0.176,-0.363 0.349,-0.72 0.519,-1.071c0.05,-0.104 0.097,-0.203 0.143,-0.299Zm2.436,-1.731c-0.026,-0.181 -0.007,-0.349 0.057,-0.505c0.063,-0.156 0.148,-0.289 0.256,-0.398c0.107,-0.109 0.227,-0.19 0.36,-0.243c0.133,-0.053 0.256,-0.073 0.37,-0.057c0.025,-0.256 0.041,-0.47 0.047,-0.643c0.006,-0.173 0.003,-0.282 -0.009,-0.326l-0.038,-0.076c-0.304,0.188 -0.563,0.449 -0.778,0.783c-0.215,0.334 -0.395,0.698 -0.54,1.093c-0.146,0.395 -0.26,0.798 -0.342,1.208c-0.082,0.411 -0.145,0.787 -0.189,1.13c-0.045,0.343 -0.067,0.633 -0.067,0.87c0,0.237 0.007,0.377 0.019,0.421c0,0.056 0.007,0.087 0.019,0.094c0.354,-0.226 0.651,-0.548 0.892,-0.965c0.24,-0.418 0.429,-0.868 0.568,-1.35c-0.341,-0.185 -0.549,-0.53 -0.625,-1.036Zm5.372,-5.776c0.661,0.008 1.115,0.622 1.011,1.37c-0.103,0.748 -0.723,1.349 -1.385,1.341c-0.661,-0.008 -1.114,-0.621 -1.011,-1.37c0.103,-0.748 0.724,-1.349 1.385,-1.341Z" style="fill:#a309c4;fill-rule:nonzero;"/><path d="M17.125,14.996l-0.076,0.003l-1.132,0.276l-1.096,0.299l-0.75,0.295l1.076,-0.345l1.363,-0.369l0.615,-0.159Zm-3.238,2.165l0.497,-0.196l0.109,-0.045l-0.081,0.021l-0.525,0.22Zm-1.402,0.547l-0.219,0.09l0.595,-0.204l0.415,-0.175l-0.791,0.289Zm6.565,-3.814l-0.58,-0.153l-0.557,-0.159l0.333,0.116l0.509,0.138l0.295,0.058Zm1.711,0.567l-0.013,-0.03l-0.114,-0.055l-0.029,-0.009l0.156,0.094Zm0.466,0.519l0.006,0.015l0.034,-0.042l-0.002,-0.033l-0.038,0.06Zm-0.057,-0.103l0.095,-0.109l-0.001,-0.033l-0.094,-0.16l-0.269,-0.116l-0.077,-0.031l0.106,0.158l0.157,0.128l0.083,0.163Zm-0.01,0.188l-0.067,0.084l-0.089,0.124l0.162,-0.193l-0.006,-0.015Zm-0.029,-0.127l-0.1,-0.176l-0.097,-0.076l-0.143,0.239l-0.233,0.329l-0.308,0.365l-0.352,0.444l-0.296,0.362l0.517,-0.419l0.477,-0.392l0.079,-0.054l0.044,-0.079l0.312,-0.417l0.1,-0.126Zm-1.133,1.873l0.264,-0.287l0.112,-0.13l-0.266,0.22l-0.11,0.197Zm-0.282,0.274l0.182,-0.299l-0.312,0.266l-0.492,0.446l-0.435,0.432l-0.342,0.374l-0.223,0.293l-0.044,0.079l0.165,-0.127l0.304,-0.314l0.407,-0.374l0.434,-0.432l0.356,-0.344Zm1.354,-1.627l0.053,-0.148l0.022,-0.04l-0.079,0.088l-0.335,0.272l-0.254,0.401l-0.21,0.324l0.255,-0.218l0.326,-0.353l0.128,-0.184l0.094,-0.142Zm0.314,-0.653l-0.001,-0.033l-0.017,0.021l0.018,0.012Zm-9.927,2.697l0.039,0.091l-0.286,0.023l-0.051,-0.087l0.308,-0.215l0.68,-0.309l0.959,-0.349l1.128,-0.375l1.272,-0.429l1.35,-0.399l2.402,-0.62l0.802,-0.174l0.038,0.091l-0.802,0.174l-1.114,0.287l-1.287,0.333l-1.35,0.398l-1.273,0.43l-1.128,0.375l-0.959,0.348l-0.656,0.304l-0.171,0.112l0.099,-0.009Zm0.227,-0.344l-0.062,-0.085l0.187,-0.166l0.453,-0.235l0.453,-0.268l-0.895,0.349l-0.598,0.288l-0.361,0.211l-0.062,-0.085l0.384,-0.216l0.598,-0.289l0.93,-0.358l0.521,-0.168l0.569,-0.265l0.981,-0.388l1.096,-0.299l1.132,-0.276l0.533,-0.019l0.29,-0.075l1.078,-0.161l0.79,-0.019l0.016,0.097l-0.768,0.013l-0.943,0.143l0.032,0.076l-0.457,0.016l-1.032,0.267l-1.363,0.369l-1.302,0.42l-0.602,0.189l-0.299,0.144l-0.659,0.389l-0.453,0.235l-0.187,0.166Zm-0.623,1.287l-0.062,-0.085l0.238,-0.196l0.115,-0.063l0.155,-0.09l0.058,-0.015l0.201,-0.103l0.68,-0.276l0.913,-0.337l1.014,-0.43l0.954,-0.33l0.859,-0.373l0.96,-0.315l0.87,-0.225l0.769,-0.131l0.019,0.045l0.232,-0.059l0.74,-0.107l0.039,0.09l-0.74,0.107l-0.981,0.237l-1.23,0.317l-1.237,0.421l-0.249,0.081l-0.075,0.036l-0.88,0.412l-0.825,0.331l-0.698,0.298l-0.595,0.204l-0.47,0.138l-0.22,0.057l-0.316,0.165l-0.238,0.196Zm0.444,0.256l-0.039,-0.091l0.316,-0.166l0.489,-0.21l0.726,-0.322l0.895,-0.349l1.026,-0.433l1.108,-0.421l1.104,-0.402l1.044,-0.27l0.865,-0.206l0.039,0.091l-0.865,0.206l-1.044,0.27l-1.104,0.402l-1.108,0.421l-1.027,0.433l-0.894,0.349l-0.726,0.322l-0.49,0.21l-0.315,0.166Zm-0.246,-0.727l-0.039,-0.091l0.248,-0.115l0.458,-0.253l0.622,-0.294l0.83,-0.349l0.934,-0.376l1.041,-0.369l1.081,-0.364l1.033,-0.266l0.918,-0.204l0.743,-0.04l0.038,0.091l-0.742,0.04l-0.918,0.204l-1.033,0.266l-1.081,0.363l-1.041,0.37l-0.934,0.376l-0.83,0.348l-0.622,0.295l-0.459,0.253l-0.247,0.115Zm5.436,-4.801l-0.039,-0.09l0.28,-0.039l0.485,0.11l0.55,0.111l0.637,0.104l0.69,0.108l0.679,0.144l0.552,0.177l0.461,0.234l0.272,0.216l0.151,0.264l0.008,0.048l0.134,-0.169l-0.111,-0.291l-0.182,-0.155l-0.308,-0.088l-0.505,-0.156l-0.572,-0.104l-0.622,-0.159l-0.628,-0.175l-0.578,-0.237l-0.479,-0.247l-0.365,-0.191l-0.285,-0.095l0.008,-0.103l0.298,0.125l0.365,0.192l0.479,0.246l0.541,0.213l0.629,0.175l0.621,0.159l0.573,0.104l0.504,0.156l0.345,0.113l0.218,0.179l0.126,0.388l-0.189,0.25l0.025,0.179l-0.148,0.408l-0.044,0.079l-0.005,0.018l-0.133,0.202l-0.073,0.221l-0.163,0.462l-0.239,0.499l-0.349,0.511l-0.385,0.486l-0.369,0.432l-0.319,0.401l-0.256,0.335l-0.138,0.221l-0.085,-0.079l0.161,-0.226l0.256,-0.336l0.319,-0.401l0.369,-0.432l0.385,-0.486l0.326,-0.505l0.251,-0.468l0.137,-0.405l-0.051,0.063l-0.183,0.266l-0.403,0.474l-0.444,0.468l-0.09,0.09l-0.006,0.019l-0.397,0.607l-0.378,0.534l-0.31,0.45l-0.235,0.296l-0.163,0.16l-0.062,-0.085l0.163,-0.16l0.235,-0.295l0.31,-0.451l0.378,-0.534l0.182,-0.266l-0.085,0.072l-0.434,0.432l-0.407,0.374l-0.304,0.314l-0.233,0.178l-0.071,0.136l-0.085,-0.079l0.067,-0.084l-0.036,-0.025l0.09,-0.242l0.246,-0.299l0.342,-0.374l0.435,-0.432l0.492,-0.446l0.505,-0.416l0.012,-0.003l0.01,-0.037l0.341,-0.559l0.084,-0.105l-0.295,0.244l-0.517,0.419l-0.496,0.498l-0.451,0.453l-0.323,0.42l-0.214,0.375l-0.085,-0.079l0.077,-0.121l-0.389,0.386l-0.062,-0.085l0.389,-0.386l0.402,-0.507l0.473,-0.492l0.455,-0.505l0.396,-0.489l0.352,-0.444l0.308,-0.365l0.233,-0.329l0.144,-0.206l-0.097,-0.076l-0.396,-0.234l-0.165,-0.024l-0.494,-0.041l-0.581,-0.035l-0.582,-0.035l-0.576,-0.053l-0.512,-0.053l-0.271,-0.031l-0.016,-0.096l0.271,0.031l0.512,0.052l0.577,0.053l1.321,0.08l-0.532,-0.132l-0.561,-0.107l-0.51,-0.138l-0.38,-0.137l-0.256,-0.086l0.003,-0.084l-0.261,-0.068l-0.29,-0.076l-0.016,-0.097l0.291,0.076l0.516,0.153l0.586,0.168l0.64,0.171l0.658,0.184l0.535,0.198l0.172,0.04l0.112,0.021l0.048,0.021l0.29,0.077l0.281,0.146l0.131,0.185l0.016,-0.021l0.029,-0.024l-0.022,-0.112l-0.138,-0.234l-0.237,-0.191l-0.447,-0.204l-0.529,-0.183l-0.68,-0.144l-0.69,-0.108l-0.637,-0.104l-0.549,-0.111l-0.485,-0.11l-0.257,0.032Z" style="fill:#a309c4;fill-rule:nonzero;"/><path d="M16.076,22.486l0.076,0l1.151,-0.223l1.116,-0.249l0.771,-0.26l-1.1,0.296l-1.388,0.305l-0.626,0.131Zm3.395,-2.013l-0.51,0.172l-0.113,0.04l0.083,-0.017l0.54,-0.195Zm1.441,-0.482l0.226,-0.08l-0.61,0.177l-0.428,0.155l0.812,-0.252Zm-6.842,3.507l0.568,0.179l0.544,0.184l-0.323,-0.131l-0.498,-0.16l-0.291,-0.072Zm-1.664,-0.644l0.01,0.03l0.109,0.06l0.029,0.011l-0.148,-0.101Zm-0.426,-0.54l-0.006,-0.015l-0.036,0.041l-0.001,0.033l0.043,-0.059Zm0.049,0.106l-0.104,0.104l-0.001,0.033l0.082,0.165l0.259,0.128l0.075,0.034l-0.094,-0.162l-0.147,-0.135l-0.07,-0.167Zm0.024,-0.187l0.073,-0.081l0.098,-0.12l-0.176,0.186l0.005,0.015Zm0.019,0.128l0.087,0.18l0.091,0.081l0.161,-0.232l0.257,-0.318l0.335,-0.351l0.385,-0.427l0.323,-0.348l-0.548,0.395l-0.505,0.37l-0.084,0.05l-0.05,0.077l-0.342,0.401l-0.11,0.122Zm1.272,-1.818l-0.285,0.274l-0.122,0.125l0.283,-0.208l0.124,-0.191Zm0.303,-0.261l-0.204,0.29l0.331,-0.251l0.525,-0.423l0.466,-0.411l0.371,-0.358l0.244,-0.282l0.05,-0.077l-0.174,0.119l-0.328,0.3l-0.434,0.355l-0.466,0.411l-0.381,0.327Zm-1.475,1.563l-0.063,0.145l-0.025,0.038l0.085,-0.083l0.355,-0.256l0.283,-0.39l0.234,-0.313l-0.271,0.205l-0.352,0.338l-0.141,0.178l-0.105,0.138Zm-0.362,0.637l-0.002,0.033l0.019,-0.02l-0.017,-0.013Zm10.113,-2.239l-0.032,-0.092l0.288,-0.011l0.043,0.09l-0.323,0.2l-0.702,0.278l-0.984,0.304l-1.154,0.323l-1.303,0.371l-1.377,0.336l-2.445,0.51l-0.813,0.136l-0.032,-0.092l0.814,-0.137l1.133,-0.236l1.311,-0.273l1.378,-0.337l1.302,-0.37l1.154,-0.323l0.984,-0.304l0.678,-0.274l0.18,-0.103l-0.1,0.004Zm-0.252,0.334l0.055,0.087l-0.199,0.157l-0.471,0.214l-0.471,0.247l0.919,-0.307l0.619,-0.261l0.376,-0.194l0.055,0.087l-0.399,0.199l-0.619,0.261l-0.955,0.315l-0.533,0.144l-0.588,0.238l-1.009,0.342l-1.116,0.25l-1.151,0.223l-0.533,-0.005l-0.296,0.062l-1.088,0.111l-0.79,-0.017l-0.009,-0.098l0.767,0.022l0.953,-0.099l-0.026,-0.077l0.457,0.004l1.051,-0.219l1.388,-0.306l1.331,-0.36l0.616,-0.161l0.309,-0.131l0.687,-0.358l0.471,-0.213l0.199,-0.157Zm0.719,-1.257l0.055,0.087l-0.253,0.185l-0.119,0.058l-0.161,0.083l-0.059,0.012l-0.209,0.093l-0.7,0.245l-0.936,0.295l-1.046,0.383l-0.977,0.286l-0.885,0.333l-0.983,0.271l-0.885,0.184l-0.777,0.096l-0.016,-0.046l-0.236,0.049l-0.747,0.073l-0.032,-0.093l0.747,-0.073l0.997,-0.191l1.252,-0.261l1.267,-0.363l0.254,-0.069l0.078,-0.033l0.91,-0.371l0.848,-0.293l0.719,-0.265l0.61,-0.177l0.479,-0.116l0.224,-0.047l0.328,-0.15l0.253,-0.185Zm-0.424,-0.276l0.032,0.093l-0.328,0.151l-0.505,0.188l-0.749,0.288l-0.919,0.307l-1.057,0.385l-1.138,0.37l-1.132,0.351l-1.063,0.222l-0.879,0.166l-0.032,-0.092l0.879,-0.167l1.063,-0.221l1.132,-0.352l1.138,-0.369l1.057,-0.386l0.92,-0.307l0.748,-0.288l0.505,-0.188l0.328,-0.151Zm0.19,0.737l0.032,0.093l-0.256,0.103l-0.477,0.231l-0.642,0.266l-0.855,0.311l-0.962,0.332l-1.066,0.321l-1.107,0.314l-1.051,0.219l-0.932,0.161l-0.744,0.006l-0.032,-0.092l0.744,-0.007l0.932,-0.161l1.051,-0.219l1.107,-0.313l1.067,-0.321l0.961,-0.333l0.855,-0.31l0.642,-0.266l0.478,-0.232l0.255,-0.103Zm-5.789,4.544l0.032,0.093l-0.282,0.025l-0.476,-0.132l-0.54,-0.135l-0.628,-0.134l-0.681,-0.139l-0.668,-0.175l-0.537,-0.202l-0.442,-0.254l-0.256,-0.228l-0.131,-0.27l-0.004,-0.049l-0.147,0.163l0.089,0.295l0.17,0.163l0.301,0.102l0.492,0.179l0.564,0.13l0.609,0.188l0.614,0.202l0.558,0.264l0.46,0.268l0.35,0.207l0.277,0.108l-0.015,0.102l-0.288,-0.138l-0.35,-0.208l-0.46,-0.268l-0.524,-0.237l-0.614,-0.203l-0.609,-0.187l-0.564,-0.131l-0.491,-0.178l-0.336,-0.129l-0.204,-0.188l-0.097,-0.393l0.208,-0.242l-0.011,-0.179l0.178,-0.401l0.05,-0.076l0.006,-0.018l0.148,-0.196l0.09,-0.217l0.198,-0.454l0.275,-0.487l0.387,-0.494l0.421,-0.468l0.402,-0.414l0.348,-0.386l0.281,-0.323l0.154,-0.214l0.079,0.082l-0.177,0.219l-0.282,0.323l-0.348,0.387l-0.401,0.414l-0.421,0.467l-0.364,0.489l-0.286,0.456l-0.166,0.399l0.055,-0.061l0.202,-0.257l0.439,-0.455l0.479,-0.447l0.096,-0.086l0.007,-0.018l0.443,-0.588l0.417,-0.517l0.344,-0.435l0.256,-0.285l0.176,-0.152l0.055,0.088l-0.175,0.152l-0.257,0.285l-0.344,0.435l-0.417,0.516l-0.202,0.257l0.09,-0.068l0.466,-0.411l0.435,-0.355l0.327,-0.299l0.246,-0.167l0.081,-0.133l0.079,0.083l-0.073,0.081l0.034,0.026l-0.108,0.237l-0.268,0.288l-0.37,0.358l-0.466,0.411l-0.525,0.423l-0.536,0.392l-0.012,0.003l-0.013,0.036l-0.383,0.542l-0.091,0.102l0.313,-0.231l0.547,-0.395l0.533,-0.474l0.484,-0.431l0.355,-0.405l0.241,-0.364l0.079,0.083l-0.086,0.117l0.418,-0.368l0.055,0.087l-0.417,0.368l-0.44,0.488l-0.509,0.47l-0.492,0.483l-0.433,0.47l-0.384,0.427l-0.335,0.35l-0.258,0.319l-0.159,0.198l0.09,0.08l0.378,0.252l0.163,0.032l0.49,0.063l0.578,0.062l0.578,0.061l0.572,0.079l0.507,0.076l0.268,0.044l0.008,0.097l-0.268,-0.043l-0.507,-0.076l-0.572,-0.08l-1.313,-0.139l0.522,0.156l0.552,0.132l0.498,0.161l0.369,0.154l0.249,0.097l-0.009,0.085l0.255,0.079l0.284,0.089l0.008,0.098l-0.284,-0.09l-0.503,-0.176l-0.574,-0.194l-0.625,-0.2l-0.643,-0.213l-0.52,-0.223l-0.168,-0.047l-0.11,-0.027l-0.046,-0.023l-0.284,-0.09l-0.27,-0.158l-0.116,-0.191l-0.018,0.02l-0.031,0.023l0.014,0.113l0.12,0.239l0.222,0.202l0.431,0.224l0.514,0.207l0.668,0.175l0.68,0.139l0.629,0.133l0.54,0.136l0.476,0.132l0.258,-0.021Z" style="fill:#a309c4;fill-rule:nonzero;"/></g></svg>